<svg width="32" height="32" fill="none" xmlns="http://www.w3.org/2000/svg"><path d="M15.997 2.347c-3.708 0-4.173.015-5.63.082-1.452.066-2.445.297-3.313.634a6.693 6.693 0 00-2.419 1.575 6.693 6.693 0 00-1.574 2.419c-.338.868-.569 1.86-.635 3.314-.067 1.456-.082 1.921-.082 5.629 0 3.708.015 4.173.082 5.63.066 1.452.297 2.445.635 3.313a6.68 6.68 0 001.574 2.419 6.693 6.693 0 002.419 1.575c.868.337 1.86.568 3.314.634 1.456.066 1.921.082 5.63.082 3.707 0 4.172-.015 5.628-.082 1.453-.066 2.446-.297 3.314-.635a6.694 6.694 0 002.419-1.574 6.694 6.694 0 001.575-2.419c.337-.868.568-1.86.634-3.314.067-1.456.082-1.921.082-5.629 0-3.708-.015-4.173-.082-5.63-.066-1.452-.297-2.445-.634-3.313a6.693 6.693 0 00-1.575-2.419 6.694 6.694 0 00-2.419-1.575c-.868-.337-1.86-.568-3.314-.634-1.456-.067-1.921-.082-5.629-.082zm0 2.46c3.646 0 4.078.014 5.517.08 1.331.06 2.054.283 2.535.47a4.23 4.23 0 011.57 1.02 4.23 4.23 0 011.022 1.57c.187.482.409 1.205.47 2.536.065 1.44.08 1.871.08 5.517 0 3.645-.015 4.077-.08 5.517-.061 1.331-.284 2.054-.47 2.535a4.23 4.23 0 01-1.022 1.57 4.23 4.23 0 01-1.57 1.021c-.48.188-1.204.41-2.535.47-1.44.066-1.871.08-5.517.08-3.646 0-4.078-.014-5.517-.08-1.331-.06-2.054-.282-2.535-.47a4.232 4.232 0 01-1.57-1.02 4.23 4.23 0 01-1.021-1.57c-.187-.482-.41-1.205-.47-2.536-.066-1.44-.08-1.872-.08-5.517 0-3.646.014-4.077.08-5.517.06-1.331.283-2.054.47-2.535a4.23 4.23 0 011.02-1.57 4.23 4.23 0 011.57-1.022c.482-.186 1.205-.409 2.536-.47 1.44-.065 1.871-.08 5.517-.08z" fill="#fff"/><path d="M15.995 20.551a4.551 4.551 0 110-9.102 4.551 4.551 0 010 9.102zm0-11.562a7.011 7.011 0 100 14.022 7.011 7.011 0 000-14.022zm8.93-.277a1.638 1.638 0 11-3.276 0 1.638 1.638 0 013.276 0z" fill="#fff"/></svg>