<svg width="32" height="32" fill="none" xmlns="http://www.w3.org/2000/svg"><path d="M28.89 22a30.068 30.068 0 00-4.13-5.15.2.2 0 010-.25 40.658 40.658 0 003.55-5.81 1.9 1.9 0 00-.08-1.86A1.81 1.81 0 0026.65 8h-3a2 2 0 00-1.79 1.19 34.986 34.986 0 01-3.12 5.51V9.8a1.788 1.788 0 00-1.8-1.8h-4.38a1.4 1.4 0 00-1.12 2.21l.4.56c.215.308.33.675.33 1.05v3.84a26.113 26.113 0 01-3.12-6.31A2 2 0 007.16 8H4.71a1.73 1.73 0 00-1.66 2.14c1.35 5.73 4.18 10.48 7.77 13a1 1 0 001.16-1.63C8.84 19.31 6.34 15.12 5.07 10h2.1a26.121 26.121 0 004.1 7.75 1.6 1.6 0 001.8.52 1.64 1.64 0 001.1-1.57v-4.88a3.779 3.779 0 00-.46-1.82h3v5.43A1.77 1.77 0 0018 17.15a1.74 1.74 0 002-.69A36.868 36.868 0 0023.62 10h2.8a39.798 39.798 0 01-3.29 5.37 2.17 2.17 0 00.2 2.83 32.064 32.064 0 013.92 4.8H23.9a14 14 0 00-4.07-4.31 1.64 1.64 0 00-1.73-.13 1.69 1.69 0 00-.92 1.52v2.38a.53.53 0 01-.5.55h-.86a1 1 0 000 2h.86a2.52 2.52 0 002.5-2.55v-1.77a11.778 11.778 0 013 3.32 2.001 2.001 0 001.69 1h3.38a1.92 1.92 0 001.69-1 2 2 0 00-.05-2.01z" fill="#fff"/></svg>